<?xml version="1.0" standalone="no"?>
<!DOCTYPE svg PUBLIC "-//W3C//DTD SVG 20010904//EN"
 "http://www.w3.org/TR/2001/REC-SVG-20010904/DTD/svg10.dtd">
<svg version="1.0" xmlns="http://www.w3.org/2000/svg"
 width="1076.000000pt" height="198.000000pt" viewBox="0 0 1076.000000 198.000000"
 preserveAspectRatio="xMidYMid meet">

<g transform="translate(0.000000,198.000000) scale(0.100000,-0.100000)"
fill="#FFFFFF" stroke="none"> <!-- Changed fill to white -->
<path d="M311 1760 c-114 -16 -160 -44 -193 -118 -18 -41 -19 -67 -18 -405 1
-390 4 -420 52 -467 55 -56 98 -63 383 -69 l260 -6 3 -109 c2 -71 -1 -113 -9
-122 -14 -17 -101 -19 -130 -4 -13 7 -19 21 -19 43 0 18 -5 38 -12 45 -9 9
-83 12 -270 12 l-258 0 0 -182 c0 -158 3 -189 19 -225 25 -54 85 -89 176 -103
96 -13 758 -13 848 1 81 13 100 20 140 57 52 49 57 91 57 481 0 228 -4 370
-11 396 -14 49 -63 99 -114 116 -26 8 -131 15 -305 18 l-265 6 -3 85 c-4 130
-5 130 77 130 76 0 81 -4 81 -65 l0 -33 128 -7 c126 -8 399 -1 410 10 9 9 2
338 -9 378 -6 21 -25 54 -42 73 -55 58 -99 64 -532 69 -209 2 -409 0 -444 -5z"/>
<path d="M1527 1763 l-27 -4 2 -787 c3 -890 -1 -838 82 -886 66 -38 157 -46
546 -46 359 0 477 8 531 36 43 22 77 70 88 126 7 33 12 332 14 796 3 632 2
746 -10 758 -12 11 -60 14 -251 14 -130 0 -247 -3 -259 -6 l-23 -6 0 -642 c0
-486 -3 -645 -12 -654 -18 -18 -142 -16 -158 3 -11 13 -12 142 -7 651 l6 635
-25 9 c-24 10 -439 12 -497 3z"/>
<path d="M2938 1763 c-17 -4 -18 -54 -18 -859 l0 -854 23 -5 c12 -3 132 -4
267 -3 l245 3 3 639 c1 452 5 643 13 653 15 18 123 18 138 0 8 -10 12 -201 13
-653 l3 -639 268 -3 267 -2 0 777 c0 497 -4 791 -10 815 -24 84 -127 131 -286
129 -122 -1 -222 -22 -313 -67 -82 -40 -91 -38 -91 27 l0 36 -61 7 c-69 7
-434 6 -461 -1z"/>
<path d="M4286 1763 c-37 -4 -38 -5 -33 -36 48 -274 207 -1251 248 -1517 12
-80 26 -151 32 -157 14 -19 670 -19 684 0 9 11 31 133 113 637 16 96 32 183
35 193 16 39 31 6 43 -94 12 -102 81 -550 105 -679 l12 -65 334 -3 c184 -1
338 1 343 6 7 7 19 70 63 352 31 202 116 722 140 855 47 267 75 440 75 472 0
31 0 31 -64 38 -77 9 -441 3 -451 -7 -10 -10 -68 -396 -125 -832 -10 -83 -36
-141 -50 -115 -4 8 -10 43 -14 79 -13 134 -89 729 -104 820 -7 39 -11 46 -37
51 -40 9 -420 11 -478 3 l-46 -7 -10 -66 c-6 -36 -34 -239 -62 -450 -28 -212
-55 -395 -60 -408 -11 -29 -27 -30 -34 0 -4 20 -62 105 -105 317 -54 433 -90
684 -99 693 -11 11 -429 17 -506 7z"/>
<path d="M7975 1760 c-49 -6 -49 20 4 -295 22 -132 49 -301 61 -375 12 -74 48
-299 81 -500 33 -201 64 -399 70 -440 6 -41 14 -82 19 -90 6 -13 64 -15 410
-18 222 -1 407 1 411 5 10 10 34 150 109 633 12 74 28 167 35 205 8 39 26 151
40 250 15 99 42 261 61 360 18 99 35 198 36 220 l3 40 -60 6 c-82 9 -381 9
-430 1 -46 -8 -46 -10 -65 -187 -6 -60 -22 -189 -35 -285 -12 -96 -28 -222
-34 -280 -23 -215 -37 -280 -59 -267 -12 8 -19 53 -52 317 -54 433 -90 684
-99 693 -11 11 -429 17 -506 7z"/>
</g>
</svg>
